<svg id="Layer_1" data-name="Layer 1" xmlns="http://www.w3.org/2000/svg" xmlns:xlink="http://www.w3.org/1999/xlink" viewBox="0 0 389 457"><defs><style>.cls-1,.cls-10,.cls-11,.cls-4,.cls-6,.cls-8,.cls-9{fill:none;}.cls-2{opacity:0.3;}.cls-3{clip-path:url(#clip-path);}.cls-11,.cls-4,.cls-8{stroke:#009ada;}.cls-10,.cls-11,.cls-4,.cls-6,.cls-8,.cls-9{stroke-linecap:round;stroke-linejoin:round;}.cls-4,.cls-6{stroke-width:1.67px;}.cls-5{fill:#009ada;}.cls-10,.cls-6,.cls-9{stroke:gray;}.cls-7{fill:gray;}.cls-8{stroke-width:0.99px;}.cls-9{stroke-width:1.09px;}.cls-10{stroke-width:1.7px;}.cls-11{stroke-width:2.4px;}</style><clipPath id="clip-path"><rect class="cls-1" width="388" height="456"/></clipPath></defs><title>Environments</title><g class="cls-2"><g class="cls-3"><path class="cls-4" d="M-5.54,374.38H2.53A3.39,3.39,0,0,0,5.91,371v-4.49"/><path class="cls-4" d="M-5.54,374.38H17.24"/><path class="cls-4" d="M17.6,374.38H9.53A3.39,3.39,0,0,1,6.15,371v-4.49"/><rect class="cls-5" x="-11.67" y="357.18" width="35.4" height="7.69" rx="2.1" ry="2.1"/><rect class="cls-5" x="-11.67" y="347.18" width="35.4" height="7.69" rx="2.1" ry="2.1"/><rect class="cls-5" x="-11.67" y="337.18" width="35.4" height="7.69" rx="2.1" ry="2.1"/><path class="cls-6" d="M146.46,45.38h8.07A3.39,3.39,0,0,0,157.91,42V37.51"/><path class="cls-6" d="M146.46,45.38h22.78"/><path class="cls-6" d="M169.6,45.38h-8.07A3.39,3.39,0,0,1,158.15,42V37.51"/><rect class="cls-7" x="140.33" y="28.18" width="35.4" height="7.69" rx="2.1" ry="2.1"/><rect class="cls-7" x="140.33" y="18.18" width="35.4" height="7.69" rx="2.1" ry="2.1"/><rect class="cls-7" x="140.33" y="8.18" width="35.4" height="7.69" rx="2.1" ry="2.1"/><path class="cls-8" d="M43,127.25h4.79a2,2,0,0,0,2-2v-2.66"/><path class="cls-8" d="M43,127.25H56.49"/><path class="cls-8" d="M56.7,127.25H51.91a2,2,0,0,1-2-2v-2.66"/><rect class="cls-5" x="39.33" y="117.05" width="21" height="4.57" rx="1.24" ry="1.24"/><rect class="cls-5" x="39.33" y="111.12" width="21" height="4.57" rx="1.24" ry="1.24"/><rect class="cls-5" x="39.33" y="105.18" width="21" height="4.57" rx="1.24" ry="1.24"/><path class="cls-9" d="M63.51,446.77h5.26a2.21,2.21,0,0,0,2.2-2.2v-2.93"/><path class="cls-9" d="M63.51,446.77H78.36"/><path class="cls-9" d="M78.59,446.77H73.33a2.21,2.21,0,0,1-2.2-2.2v-2.93"/><rect class="cls-7" x="59.51" y="435.56" width="23.08" height="5.02" rx="1.37" ry="1.37"/><rect class="cls-7" x="59.51" y="429.04" width="23.08" height="5.02" rx="1.37" ry="1.37"/><rect class="cls-7" x="59.51" y="422.52" width="23.08" height="5.02" rx="1.37" ry="1.37"/><path class="cls-10" d="M188.44,253.21h8.22a3.45,3.45,0,0,0,3.44-3.44v-4.57"/><path class="cls-10" d="M188.44,253.21h23.2"/><path class="cls-10" d="M212,253.21h-8.22a3.45,3.45,0,0,1-3.44-3.44v-4.57"/><rect class="cls-7" x="182.19" y="235.69" width="36.05" height="7.84" rx="2.14" ry="2.14"/><rect class="cls-7" x="182.19" y="225.51" width="36.05" height="7.84" rx="2.14" ry="2.14"/><rect class="cls-7" x="182.19" y="215.33" width="36.05" height="7.84" rx="2.14" ry="2.14"/><path class="cls-11" d="M304.13,162.56h11.58a4.87,4.87,0,0,0,4.85-4.85v-6.44"/><path class="cls-11" d="M304.13,162.56h32.69"/><path class="cls-11" d="M337.33,162.56H325.75a4.87,4.87,0,0,1-4.85-4.85v-6.44"/><rect class="cls-5" x="295.33" y="137.88" width="50.79" height="11.04" rx="3.01" ry="3.01"/><rect class="cls-5" x="295.33" y="123.53" width="50.79" height="11.04" rx="3.01" ry="3.01"/><rect class="cls-5" x="295.33" y="109.18" width="50.79" height="11.04" rx="3.01" ry="3.01"/></g></g></svg>