<svg xmlns="http://www.w3.org/2000/svg" xmlns:xlink="http://www.w3.org/1999/xlink" id="Layer_1" data-name="Layer 1" viewBox="0 0 389 457"><defs><style>.cls-1,.cls-10,.cls-11,.cls-4,.cls-6,.cls-8,.cls-9{fill:none}.cls-2{opacity:.3}.cls-3{clip-path:url(#clip-path)}.cls-11,.cls-4,.cls-8{stroke:#009ada}.cls-10,.cls-11,.cls-4,.cls-6,.cls-8,.cls-9{stroke-linecap:round;stroke-linejoin:round}.cls-4,.cls-6{stroke-width:1.67px}.cls-5{fill:#009ada}.cls-10,.cls-6,.cls-9{stroke:gray}.cls-7{fill:gray}.cls-8{stroke-width:.99px}.cls-9{stroke-width:1.09px}.cls-10{stroke-width:1.7px}.cls-11{stroke-width:2.4px}</style><clipPath id="clip-path"><rect width="388" height="456" class="cls-1" transform="translate(388 456) rotate(180)"/></clipPath></defs><title>Environments</title><g class="cls-2"><g class="cls-3"><path d="M393.54,374.38h-8.07a3.39,3.39,0,0,1-3.38-3.38v-4.49" class="cls-4"/><path d="M393.54,374.38H370.76" class="cls-4"/><path d="M370.4,374.38h8.07a3.39,3.39,0,0,0,3.38-3.38v-4.49" class="cls-4"/><rect width="35.4" height="7.69" x="364.27" y="357.18" class="cls-5" rx="2.1" ry="2.1"/><rect width="35.4" height="7.69" x="364.27" y="347.18" class="cls-5" rx="2.1" ry="2.1"/><rect width="35.4" height="7.69" x="364.27" y="337.18" class="cls-5" rx="2.1" ry="2.1"/><path d="M241.54,45.38h-8.07A3.39,3.39,0,0,1,230.09,42V37.51" class="cls-6"/><path d="M241.54,45.38H218.76" class="cls-6"/><path d="M218.4,45.38h8.07A3.39,3.39,0,0,0,229.85,42V37.51" class="cls-6"/><rect width="35.4" height="7.69" x="212.27" y="28.18" class="cls-7" rx="2.1" ry="2.1"/><rect width="35.4" height="7.69" x="212.27" y="18.18" class="cls-7" rx="2.1" ry="2.1"/><rect width="35.4" height="7.69" x="212.27" y="8.18" class="cls-7" rx="2.1" ry="2.1"/><path d="M345,127.25h-4.79a2,2,0,0,1-2-2v-2.66" class="cls-8"/><path d="M345,127.25H331.51" class="cls-8"/><path d="M331.3,127.25h4.79a2,2,0,0,0,2-2v-2.66" class="cls-8"/><rect width="21" height="4.57" x="327.66" y="117.05" class="cls-5" rx="1.24" ry="1.24"/><rect width="21" height="4.57" x="327.66" y="111.12" class="cls-5" rx="1.24" ry="1.24"/><rect width="21" height="4.57" x="327.66" y="105.18" class="cls-5" rx="1.24" ry="1.24"/><path d="M324.49,446.77h-5.26a2.21,2.21,0,0,1-2.2-2.2v-2.93" class="cls-9"/><path d="M324.49,446.77H309.64" class="cls-9"/><path d="M309.41,446.77h5.26a2.21,2.21,0,0,0,2.2-2.2v-2.93" class="cls-9"/><rect width="23.08" height="5.02" x="305.41" y="435.56" class="cls-7" rx="1.37" ry="1.37"/><rect width="23.08" height="5.02" x="305.41" y="429.04" class="cls-7" rx="1.37" ry="1.37"/><rect width="23.08" height="5.02" x="305.41" y="422.52" class="cls-7" rx="1.37" ry="1.37"/><path d="M199.56,253.21h-8.22a3.45,3.45,0,0,1-3.44-3.44v-4.57" class="cls-10"/><path d="M199.56,253.21h-23.2" class="cls-10"/><path d="M176,253.21h8.22a3.45,3.45,0,0,0,3.44-3.44v-4.57" class="cls-10"/><rect width="36.05" height="7.84" x="169.76" y="235.69" class="cls-7" rx="2.14" ry="2.14"/><rect width="36.05" height="7.84" x="169.76" y="225.51" class="cls-7" rx="2.14" ry="2.14"/><rect width="36.05" height="7.84" x="169.76" y="215.33" class="cls-7" rx="2.14" ry="2.14"/><path d="M83.87,162.56H72.29a4.87,4.87,0,0,1-4.85-4.85v-6.44" class="cls-11"/><path d="M83.87,162.56H51.18" class="cls-11"/><path d="M50.67,162.56H62.25a4.87,4.87,0,0,0,4.85-4.85v-6.44" class="cls-11"/><rect width="50.79" height="11.04" x="41.87" y="137.88" class="cls-5" rx="3.01" ry="3.01"/><rect width="50.79" height="11.04" x="41.87" y="123.53" class="cls-5" rx="3.01" ry="3.01"/><rect width="50.79" height="11.04" x="41.87" y="109.18" class="cls-5" rx="3.01" ry="3.01"/></g></g></svg>