<svg xmlns="http://www.w3.org/2000/svg" xmlns:xlink="http://www.w3.org/1999/xlink" id="Layer_1" data-name="Layer 1" viewBox="0 0 1472 579"><defs><style>.cls-1,.cls-11{fill:none}.cls-2{clip-path:url(#clip-path)}.cls-3{fill:#c1dff6}.cls-4,.cls-6,.cls-7{fill:#82beec}.cls-5{fill:#2f93e0}.cls-6,.cls-7{font-size:62.37px;font-family:Arial Rounded MT Bold}.cls-7{font-size:55.87px}.cls-14,.cls-15,.cls-16,.cls-8{fill:#fff}.cls-9{clip-path:url(#clip-path-2)}.cls-10,.cls-13{fill:#0f2535}.cls-11{stroke:#2f93e0;stroke-miterlimit:10;stroke-width:2.5px}.cls-12{fill:#6db3e9}.cls-13,.cls-14{stroke:#0f2535;stroke-width:2.51px;stroke-linecap:round;stroke-linejoin:round}.cls-14{stroke:#fff;stroke-width:2.4px}.cls-15{font-size:20.99px;font-family:Arial;font-weight:700}.cls-16{fill-rule:evenodd}</style><clipPath id="clip-path"><rect width="1561.39" height="720.74" x="-87.39" y="-58.46" class="cls-1"/></clipPath><clipPath id="clip-path-2"><polygon points="558.03 396.1 601.3 439.37 624.6 427.72 612.95 492.62 809.32 565.85 939.96 513.43 973.24 480.14 977.4 459.34 945.78 411.91 937.46 406.08 969.91 373.63 918.12 269.62 833.24 288.34 799.54 301.45 711.13 300.41 696.16 286.26 604.83 269 558.03 396.1" class="cls-1"/></clipPath></defs><title>OctoFX_banner_03</title><g class="cls-2"><path d="M586.51,165H503.88a24.34,24.34,0,0,1-24.34-24.34h0a24.34,24.34,0,0,1,24.34-24.34h82.63a24.34,24.34,0,0,1,24.34,24.34h0A24.34,24.34,0,0,1,586.51,165Z" class="cls-3"/><path d="M482.84,199.13h0a24.34,24.34,0,0,0-24.34-24.34H240.13a24.34,24.34,0,0,0-24.34,24.34h0a24.34,24.34,0,0,1-24.34,24.34H60.81a24.34,24.34,0,0,0-24.34,24.34h0a24.34,24.34,0,0,0,24.34,24.34h55.24A24.34,24.34,0,0,1,140.4,296.5h0a24.34,24.34,0,0,0,24.34,24.34H383.11a24.34,24.34,0,0,0,24.34-24.34h0a24.34,24.34,0,0,0-24.34-24.34H327.87a24.34,24.34,0,0,1-24.34-24.34h0a24.34,24.34,0,0,1,24.34-24.34H458.5A24.34,24.34,0,0,0,482.84,199.13Z" class="cls-3"/><path d="M584.49,526.62h0A24.34,24.34,0,0,1,560.14,551H341.77a24.34,24.34,0,0,1-24.34-24.34h0a24.34,24.34,0,0,0-24.34-24.34H162.46a24.34,24.34,0,0,1-24.34-24.34h0a24.34,24.34,0,0,1,24.34-24.34H217.7A24.34,24.34,0,0,0,242,429.25h0a24.34,24.34,0,0,1,24.34-24.34H484.75a24.34,24.34,0,0,1,24.34,24.34h0a24.34,24.34,0,0,1-24.34,24.34H429.51a24.34,24.34,0,0,0-24.34,24.34h0a24.34,24.34,0,0,0,24.34,24.34H560.14A24.34,24.34,0,0,1,584.49,526.62Z" class="cls-3"/><circle cx="417.31" cy="426.65" r="49.04" class="cls-4"/><circle cx="417.31" cy="426.65" r="41.4" class="cls-5"/><text class="cls-6" transform="translate(397.79 448.09)">$</text><circle cx="474.13" cy="88.31" r="49.04" class="cls-4"/><circle cx="474.13" cy="88.31" r="41.4" class="cls-5"/><text class="cls-6" transform="translate(455.28 104.87)">£</text><circle cx="139.1" cy="175.06" r="49.04" class="cls-4"/><circle cx="139.1" cy="175.06" r="41.4" class="cls-5"/><text class="cls-7" transform="translate(119.49 194.38)">€</text><path d="M1281,139.62h-82.63A24.34,24.34,0,0,1,1174,115.28h0a24.34,24.34,0,0,1,24.34-24.34H1281a24.34,24.34,0,0,1,24.34,24.34h0A24.34,24.34,0,0,1,1281,139.62Z" class="cls-3"/><path d="M1111.45,173.79h0a24.34,24.34,0,0,0-24.34-24.34H868.73a24.34,24.34,0,0,0-24.34,24.34h0A24.34,24.34,0,0,1,820,198.14H689.42a24.34,24.34,0,0,0-24.34,24.34h0a24.34,24.34,0,0,0,24.34,24.34h55.24A24.34,24.34,0,0,1,769,271.17h0a24.34,24.34,0,0,0,24.34,24.34h218.37a24.34,24.34,0,0,0,24.34-24.34h0a24.34,24.34,0,0,0-24.34-24.34H956.48a24.34,24.34,0,0,1-24.34-24.34h0a24.34,24.34,0,0,1,24.34-24.34H1087.1A24.34,24.34,0,0,0,1111.45,173.79Z" class="cls-3"/><path d="M1434.45,501.28h0a24.34,24.34,0,0,1-24.34,24.34H1191.73a24.34,24.34,0,0,1-24.34-24.34h0A24.34,24.34,0,0,0,1143,476.94H1012.42a24.34,24.34,0,0,1-24.34-24.34h0a24.34,24.34,0,0,1,24.34-24.34h55.24A24.34,24.34,0,0,0,1092,403.91h0a24.34,24.34,0,0,1,24.34-24.34h218.37a24.34,24.34,0,0,1,24.34,24.34h0a24.34,24.34,0,0,1-24.34,24.34h-55.24a24.34,24.34,0,0,0-24.34,24.34h0a24.34,24.34,0,0,0,24.34,24.34h130.63A24.34,24.34,0,0,1,1434.45,501.28Z" class="cls-3"/><circle cx="1264.64" cy="336.74" r="49.04" class="cls-4"/><circle cx="1264.64" cy="336.74" r="41.4" class="cls-5"/><text class="cls-6" transform="translate(1245.13 358.19)">£</text><circle cx="1148.85" cy="62.97" r="49.04" class="cls-4"/><circle cx="1148.85" cy="62.97" r="41.4" class="cls-5"/><text class="cls-6" transform="translate(1130 79.53)">$</text></g><path d="M598.43,141.33H430.68s9.09-34.27,54.16-23.69c0,0,15-35.61,53.42-27.26,32.37,7,35.05,38.53,35.05,38.53S588.5,124.41,598.43,141.33Z" class="cls-8"/><path d="M287.1,485.28H454.84s-9.09-34.27-54.16-23.69c0,0-15-35.61-53.42-27.26-32.37,7-35.05,38.53-35.05,38.53S297,468.35,287.1,485.28Z" class="cls-8"/><path d="M247.6,226.8H79.85s9.09-34.27,54.16-23.69c0,0,15-35.61,53.42-27.26,32.37,7,35.05,38.53,35.05,38.53S237.68,209.88,247.6,226.8Z" class="cls-8"/><path d="M1269.2,116H1101.45s9.09-34.27,54.16-23.69c0,0,15-35.61,53.42-27.26,32.37,7,35.05,38.53,35.05,38.53S1259.27,99.07,1269.2,116Z" class="cls-8"/><path d="M845.24,368.38H1013s-9.09-34.27-54.16-23.69c0,0-15-35.61-53.42-27.26-32.37,7-35.05,38.53-35.05,38.53S855.17,351.46,845.24,368.38Z" class="cls-8"/><path d="M1134.42,398h167.75s-9.09-34.27-54.16-23.69c0,0-15-35.61-53.42-27.26-32.37,7-35.05,38.53-35.05,38.53S1144.35,381.08,1134.42,398Z" class="cls-8"/><path d="M567.76,398c34.44-22.19,74.91-60.22,59.55-105-8.37-24.41-20-45.34-21.52-71.73a161.55,161.55,0,0,1,9.82-65.69c30.88-82.9,122.7-122.15,205.67-97.22C898.13,81.43,951,170.67,919.15,248.42c-18.38,44.87-26.62,79.52,14.38,114.44,11.11,9.47,38.08,23.65,38,40.43-0.14,22-43.26-4.68-48.07-8.5,5.48,9.58,59.85,66.26,25.25,70.3-31.85,3.71-60-40.77-79.11-59.87-32.15-32.08-26.56,38.89-26.7,53.54-0.23,23.14-16.58,70-45.92,39.5C772.71,473,781.87,432.82,765,404.81c-18.46-30.69-49.16,30.69-56.84,41.92-8.57,12.54-51.46,73.28-68.52,40.92-13.84-26.26,8.28-67.45,19.17-91.21-4,8.63-32.09,21.38-40.31,25.54-18.57,9.38-37.42,14.94-58.3,13.44-43.21-3.1-10.07-26,7.53-37.39h0Z" class="cls-5"/><path d="M770.83,50.93a175.33,175.33,0,0,1,50.44,7.42C898.13,81.43,951,170.67,919.15,248.42c-18.38,44.87-26.62,79.52,14.38,114.44,11.11,9.47,38.08,23.65,38,40.43,0,6.29-3.6,8.6-8.77,8.6-12.9,0-35.87-14.37-39.31-17.1,5.48,9.58,59.85,66.26,25.25,70.3a32.62,32.62,0,0,1-3.77.22c-30.29,0-57-41.75-75.34-60.09-5.82-5.8-10.4-8.23-14-8.23-16.31,0-12.58,49.77-12.7,61.78-0.18,17.76-9.85,49.52-27.6,49.52-5.38,0-11.5-2.91-18.32-10C772.71,473,781.87,432.82,765,404.81c-3.63-6-7.73-8.5-12-8.5-17.6,0-38.64,41.4-44.8,50.42-6.81,10-35.25,50.3-55.21,50.3-5.18,0-9.79-2.71-13.31-9.38-13.84-26.26,8.28-67.45,19.17-91.21-4,8.63-32.09,21.38-40.31,25.54C602,430.33,585.21,435.66,567,435.66q-3.35,0-6.76-.24c-42.45-3-11.21-25.24,6.59-36.78l2.68-1.73L567.76,398c34.44-22.19,74.91-60.22,59.55-105-8.37-24.41-20-45.34-21.52-71.73a161.55,161.55,0,0,1,9.82-65.69C640.29,89.31,703.91,50.93,770.83,50.93M567.76,398l-0.94.61-0.61.39,1.55-1M770.83,37.55A183.6,183.6,0,0,0,670.06,67.2a170.46,170.46,0,0,0-67,83.7,175.83,175.83,0,0,0-10.63,71.15c1.25,21.3,8.29,39.15,15.1,56.41,2.42,6.14,4.92,12.48,7.12,18.88,13.34,38.89-28.19,72.73-54.13,89.44h-0.29l-1.06.76c-0.09.06-.13,0.12-0.22,0.18-18.29,11.9-37.13,26-32.81,42.76,1.14,4.43,4.41,10.5,13.48,14.3,4.94,2.07,11.37,3.36,19.64,4,2.56,0.18,5.16.28,7.72,0.28,18.85,0,37.15-4.8,57.58-15.12,1-.5,2.3-1.14,3.81-1.88l0.61-.3c-7.23,20.83-11,43.5-1.15,62.14,7.58,14.38,19,16.52,25.15,16.52,12.54,0,26.4-8.41,42.38-25.72a275.43,275.43,0,0,0,23.89-30.41c1.3-1.9,2.89-4.56,4.9-7.92,4.14-6.94,9.82-16.44,16-24.43,6.56-8.44,10.57-11.1,12.21-11.91a13.42,13.42,0,0,1,1.18,1.7c6.06,10.08,8.19,23.09,10.43,36.86,3.19,19.59,6.82,41.8,23.31,59,9,9.37,18.42,14.13,28,14.13,18,0,28.12-16.23,32.56-25.9a96.84,96.84,0,0,0,8.43-36.87c0-1.85,0-4.21-.11-7.2-0.17-7.17-.4-17,0.26-26.16a73.93,73.93,0,0,1,1.8-12.65c0.57,0.5,1.21,1.1,1.92,1.81,3.85,3.84,8.39,9.16,13.21,14.78,18.75,21.93,42.08,49.21,71.58,49.21a46.19,46.19,0,0,0,5.32-.31c14.21-1.66,19.58-9.94,21.52-14.65,4.56-11.1,0-23.73-9.06-38.73h0.06c13.17,0,22.07-8.66,22.15-21.76,0.12-19.84-19.52-33.79-33.85-44-3.44-2.46-6.7-4.75-8.84-6.57-16.45-14-24.09-27.52-24.76-43.83-0.65-15.78,5.16-33.52,14.09-55.32,15.5-37.84,13.72-80.28-5-119.53a172.8,172.8,0,0,0-41.28-54.62,162.23,162.23,0,0,0-60.13-33.8,188.62,188.62,0,0,0-54.29-8h0Z" class="cls-8"/><g class="cls-9"><path d="M567.76,398c34.44-22.19,74.91-60.22,59.55-105-8.37-24.41-20-45.34-21.52-71.73a161.55,161.55,0,0,1,9.82-65.69c30.88-82.9,122.7-122.15,205.67-97.22C898.13,81.43,951,170.67,919.15,248.42c-18.38,44.87-26.62,79.52,14.38,114.44,11.11,9.47,38.08,23.65,38,40.43-0.14,22-43.26-4.68-48.07-8.5,5.48,9.58,59.85,66.26,25.25,70.3-31.85,3.71-60-40.77-79.11-59.87-32.15-32.08-26.56,38.89-26.7,53.54-0.23,23.14-16.58,70-45.92,39.5C772.71,473,781.87,432.82,765,404.81c-18.46-30.69-49.16,30.69-56.84,41.92-8.57,12.54-51.46,73.28-68.52,40.92-13.84-26.26,8.28-67.45,19.17-91.21-4,8.63-32.09,21.38-40.31,25.54-18.57,9.38-37.42,14.94-58.3,13.44-43.21-3.1-10.07-26,7.53-37.39h0Z" class="cls-10"/></g><polygon points="842.55 296.23 687.93 296.23 766.47 385.7 767.72 385.7 842.55 296.23" class="cls-8"/><path d="M730.86,298a5.13,5.13,0,0,1,3.85-2.1h58.88a4.44,4.44,0,0,1,3.61,2.23l0.86,1.72a3,3,0,0,1-.92,3.67l-24.22,17a8.83,8.83,0,0,1-4.54,1.37l-7.91-.21a10.12,10.12,0,0,1-4.57-1.46l-25.39-17.12a2.56,2.56,0,0,1-.71-3.49Z" class="cls-10"/><path d="M771.55,320.49a3.25,3.25,0,0,0-3-2.44h-8.74a3.25,3.25,0,0,0-3,2.44l-12.34,56.19a4.6,4.6,0,0,0,1.36,4.06l16.48,14.12a3,3,0,0,0,3.79,0l16.48-14.12a4.6,4.6,0,0,0,1.36-4.06Z" class="cls-10"/><path d="M665.17,294.88c0.58-.88,27.21-9.79,27.21-9.79a11.08,11.08,0,0,1,4.81-.3l51.34,10.35a1.66,1.66,0,0,1,1.17,2.64l-14.1,23.75a3.37,3.37,0,0,1-3.67,1.43S660.76,301.62,665.17,294.88Z" class="cls-8"/><path d="M665.17,294.88c0.58-.88,27.21-9.79,27.21-9.79a11.08,11.08,0,0,1,4.81-.3l51.34,10.35a1.66,1.66,0,0,1,1.17,2.64l-14.1,23.75a3.37,3.37,0,0,1-3.67,1.43S660.76,301.62,665.17,294.88Z" class="cls-11"/><path d="M855.19,291.15c10,0,53.57-15.29,53.57-15.29l-10.4,62.82L764.8,403.17,755.86,394s76.1-91.87,83.3-104.35C844.92,289.67,848,291.15,855.19,291.15Z" class="cls-10"/><path d="M856.13,295.83c-0.58-.88-17.42-9.47-17.42-9.47a8.69,8.69,0,0,0-4.68-.69l-53,9.52a1.62,1.62,0,0,0-1.18,2.59l14.1,23.75a3.28,3.28,0,0,0,3.65,1.38S860.54,302.57,856.13,295.83Z" class="cls-8"/><path d="M856.13,295.83c-0.58-.88-17.42-9.47-17.42-9.47a8.69,8.69,0,0,0-4.68-.69l-53,9.52a1.62,1.62,0,0,0-1.18,2.59l14.1,23.75a3.28,3.28,0,0,0,3.65,1.38S860.54,302.57,856.13,295.83Z" class="cls-11"/><path d="M681,289.67c-10,0-43.05,6.58-43.05,6.58l59.08,77,77.8,27.88-2.08-4.58s-67.27-94.37-74.47-106.84H681Z" class="cls-10"/><path d="M692.1,283.89a6.82,6.82,0,0,1,3.89,2.45L763.58,383c0.79,1.13.46,1.48-.73,0.79L675.58,333.1a1.36,1.36,0,0,1,0-2.55l19.55-11.82c1.18-.71,1-1.44-0.34-1.62L669.4,313.7a3.47,3.47,0,0,1-2.81-2.81l-4-29.44a1.74,1.74,0,0,1,2.13-2.07Z" class="cls-5"/><path d="M838.61,284.73a7.18,7.18,0,0,0-3.93,2.45L764.2,383.27c-0.81,1.11-.5,1.46.69,0.77l89.05-51a1.35,1.35,0,0,0,0-2.53l-19.55-11.82c-1.18-.71-1-1.44.34-1.62l25.38-3.41a4,4,0,0,0,3.09-2.75l7.48-29.55a1.5,1.5,0,0,0-1.85-2Z" class="cls-5"/><circle cx="580.33" cy="401.09" r="4.16" class="cls-8"/><circle cx="944.02" cy="381.02" r="4.16" class="cls-8"/><circle cx="702.08" cy="186.31" r="49.61" class="cls-12"/><circle cx="831.89" cy="186.31" r="49.61" class="cls-12"/><path d="M829.62,128.18a58.3,58.3,0,0,0-56.91,45.75H758.26a58.45,58.45,0,1,0,1.3,14.35h11.84A58.27,58.27,0,1,0,829.62,128.18Zm-128.27,104a45.75,45.75,0,1,1,45.75-45.75A45.75,45.75,0,0,1,701.35,232.23Zm128.27,0a45.75,45.75,0,1,1,45.75-45.75A45.75,45.75,0,0,1,829.62,232.23Z" class="cls-10"/><path d="M679.55,172.25l-7.33-4.55-0.84,1.36,7.35,4.56C679,173.16,679.26,172.7,679.55,172.25Z" class="cls-13"/><path d="M689.33,163.35l-4.15-7.46-1.4.78,4.15,7.45C688.39,163.85,688.86,163.59,689.33,163.35Z" class="cls-13"/><path d="M724,175.15l8.33-4.64-0.78-1.4-8.28,4.61Q723.69,174.42,724,175.15Z" class="cls-13"/><path d="M675.52,186h-9v1.6h9C675.54,187.07,675.52,186.53,675.52,186Z" class="cls-13"/><path d="M701,160.52q0.64,0,1.28,0v-8.68h-1.6v8.66H701Z" class="cls-13"/><path d="M715.77,165.26l4.79-7.72-1.36-.84-4.76,7.67Q715.12,164.79,715.77,165.26Z" class="cls-13"/><path d="M678.8,198.5l-8.23,4.58,0.78,1.4,8.29-4.61Q679.2,199.2,678.8,198.5Z" class="cls-13"/><path d="M722,200.45l8.76,5.44,0.84-1.36-8.74-5.42C722.55,199.56,722.26,200,722,200.45Z" class="cls-13"/><path d="M726.46,186c0,0.54,0,1.07-.06,1.6h10V186h-9.93Z" class="cls-13"/><path d="M712.7,208.61l5.06,9.09,1.4-.78-5.06-9.08C713.64,208.11,713.17,208.36,712.7,208.61Z" class="cls-13"/><path d="M687.59,207.65L682.38,216l1.36,0.84,5.23-8.44Q688.27,208.07,687.59,207.65Z" class="cls-13"/><path d="M701,211.46h-0.32v10.26h1.6V211.43Q701.63,211.46,701,211.46Z" class="cls-13"/><polygon points="708.59 196.42 707.19 197.13 697.44 181.13 698.84 180.42 708.59 196.42" class="cls-14"/><rect width="1.6" height="24.65" x="700.59" y="179.68" class="cls-14"/><text class="cls-15" transform="translate(806.46 176.02)">€</text><path d="M861.31,188.23a1.79,1.79,0,0,1-1.79-1.79,29.23,29.23,0,0,0-29.2-29.2,1.79,1.79,0,0,1,0-3.58,32.81,32.81,0,0,1,32.78,32.78A1.79,1.79,0,0,1,861.31,188.23Z" class="cls-10"/><path d="M830.32,219.22a32.81,32.81,0,0,1-32.78-32.78,1.79,1.79,0,0,1,3.58,0,29.23,29.23,0,0,0,29.2,29.2A1.79,1.79,0,1,1,830.32,219.22Z" class="cls-10"/><path d="M847,200.52c-2.1-.63-2.55-1-2.55-1.84s1.43-1.13,2.28-1.13a4.72,4.72,0,0,1,2.33.62,0.49,0.49,0,0,0,.68-0.15l1.06-1.65a0.49,0.49,0,0,0-.15-0.68,7.27,7.27,0,0,0-2.89-1v-1a0.49,0.49,0,0,0-.49-0.49h-2a0.49,0.49,0,0,0-.49.49v1.18a4,4,0,0,0-3.31,3.84c0,3.25,2.79,4.1,4.64,4.66s2.39,0.88,2.38,1.62-1.37,1-2.17,1a4,4,0,0,1-2.71-1.09,0.49,0.49,0,0,0-.34-0.15,0.49,0.49,0,0,0-.35.13l-1.42,1.35a0.49,0.49,0,0,0,0,.69,6.66,6.66,0,0,0,3.31,1.83v1.12a0.49,0.49,0,0,0,.49.49h2a0.49,0.49,0,0,0,.49-0.49v-1.07c2.27-.42,3.71-1.9,3.71-3.86C851.45,201.89,848.75,201.07,847,200.52Z" class="cls-16"/><path d="M846.49,184.91a16.95,16.95,0,1,0,16.95,16.95A16.95,16.95,0,0,0,846.49,184.91Zm0,30.45A13.51,13.51,0,1,1,860,201.86,13.51,13.51,0,0,1,846.49,215.37Z" class="cls-16"/><path d="M813.13,152a16.95,16.95,0,1,0,16.95,16.95A16.95,16.95,0,0,0,813.13,152Zm0,30.45a13.51,13.51,0,1,1,13.51-13.51A13.51,13.51,0,0,1,813.13,182.41Z" class="cls-16"/><path d="M837,163.89a1.78,1.78,0,0,1-1.26-.52l-6.63-6.63a1.79,1.79,0,0,1,0-2.53l6.48-6.48a1.79,1.79,0,1,1,2.53,2.53l-5.22,5.22,5.37,5.37A1.79,1.79,0,0,1,837,163.89Z" class="cls-10"/><path d="M823.84,225.77a1.79,1.79,0,0,1-1.26-3.05l5.22-5.22-5.37-5.37a1.79,1.79,0,0,1,2.53-2.53l6.63,6.63a1.79,1.79,0,0,1,0,2.53l-6.48,6.48A1.78,1.78,0,0,1,823.84,225.77Z" class="cls-10"/></svg>