<svg id="Option_3" data-name="Option 3" xmlns="http://www.w3.org/2000/svg" xmlns:xlink="http://www.w3.org/1999/xlink" viewBox="0 0 382 130"><defs><style>.cls-1,.cls-13,.cls-4{fill:none;}.cls-1{clip-rule:evenodd;}.cls-2{clip-path:url(#clip-path);}.cls-3{opacity:0.5;}.cls-13,.cls-4{stroke:#009ada;}.cls-4{stroke-linecap:round;stroke-linejoin:round;stroke-width:2.2px;stroke-dasharray:3.52 6.17;}.cls-5{fill:#0b9ad6;}.cls-6{fill:url(#linear-gradient);}.cls-7{fill:#35ade3;}.cls-8{fill:url(#linear-gradient-2);}.cls-9{fill:url(#linear-gradient-3);}.cls-10{fill:url(#linear-gradient-4);}.cls-11,.cls-16{fill:#fff;}.cls-12{fill:#009ada;}.cls-13,.cls-15{stroke-miterlimit:10;}.cls-13{stroke-width:0.64px;}.cls-14{fill:#012639;fill-rule:evenodd;}.cls-15{fill:#54ab54;stroke:#fff;stroke-width:1.01px;}.cls-16{font-size:20.15px;font-family:FontAwesome;}</style><clipPath id="clip-path"><polygon class="cls-1" points="157.03 111.05 43.52 111.05 43.52 60.98 145.28 60.98 174.35 90.75 157.03 111.05"/></clipPath><linearGradient id="linear-gradient" x1="167.36" y1="1515.76" x2="137.11" y2="1478.38" gradientTransform="translate(0 -1426.9)" gradientUnits="userSpaceOnUse"><stop offset="0.06" stop-color="#35ade3"/><stop offset="0.21" stop-color="#37aae1"/><stop offset="0.37" stop-color="#43a0d9"/><stop offset="0.54" stop-color="#5290cd"/><stop offset="0.71" stop-color="#5e7cbe"/><stop offset="0.88" stop-color="#6c69b0"/><stop offset="0.97" stop-color="#7863ab"/></linearGradient><linearGradient id="linear-gradient-2" x1="132.99" y1="1548.38" x2="148.14" y2="1513.32" gradientTransform="translate(0 -1426.9)" gradientUnits="userSpaceOnUse"><stop offset="0.06" stop-color="#35ade3"/><stop offset="0.2" stop-color="#2ab0e5"/><stop offset="0.35" stop-color="#0fb7e0"/><stop offset="0.51" stop-color="#26bec9"/><stop offset="0.68" stop-color="#47bea6"/><stop offset="0.85" stop-color="#5dbe7e"/><stop offset="0.97" stop-color="#6bbe59"/></linearGradient><linearGradient id="linear-gradient-3" x1="153.77" y1="1502.31" x2="183.4" y2="1464.31" xlink:href="#linear-gradient-2"/><linearGradient id="linear-gradient-4" x1="165.3" y1="1476.07" x2="165.3" y2="1536.07" gradientTransform="translate(0 -1426.9)" gradientUnits="userSpaceOnUse"><stop offset="0" stop-color="#010101"/><stop offset="1" stop-color="#010101"/></linearGradient></defs><title>pipeline</title><g class="cls-2"><g class="cls-3"><path class="cls-4" d="M191.6,81.23c0,5-4.32,9-9.6,9H29.6c-5.28,0-9.6-4-9.6-9s4.32-9,9.6-9H182C187.28,72.23,191.6,76.28,191.6,81.23Z"/></g><g class="cls-3"><path class="cls-5" d="M34.86,81.12a1.78,1.78,0,1,0-1.78,1.78A1.78,1.78,0,0,0,34.86,81.12Zm1.85,0a3.62,3.62,0,1,1-3.62-3.62A3.62,3.62,0,0,1,36.7,81.12Z"/><path class="cls-5" d="M72.56,81.12a1.78,1.78,0,1,0-1.78,1.78A1.78,1.78,0,0,0,72.56,81.12Zm1.85,0a3.62,3.62,0,1,1-3.62-3.62A3.62,3.62,0,0,1,74.4,81.12Z"/><path class="cls-5" d="M110.26,81.12a1.78,1.78,0,1,0-1.78,1.78A1.78,1.78,0,0,0,110.26,81.12Zm1.85,0a3.62,3.62,0,1,1-3.62-3.62A3.62,3.62,0,0,1,112.1,81.12Z"/><path class="cls-5" d="M148,81.12a1.78,1.78,0,1,0-1.78,1.78A1.78,1.78,0,0,0,148,81.12Zm1.85,0a3.62,3.62,0,1,1-3.62-3.62A3.62,3.62,0,0,1,149.8,81.12Z"/></g></g><path class="cls-6" d="M151.75,32.67a18.75,18.75,0,0,0-4.15-1.5C128.32,26.6,114,45.5,121.87,62.68c0.08,0.08,14,30.68,16.28,35.55,0,0,25.65-11.78,30.9-23.85,4.86-11.25-3.34-31.79-4.84-34.87Z"/><path class="cls-7" d="M209.7,66.81a18.27,18.27,0,0,0-6.45-6c-0.08,0-18.08-9.9-18.08-9.9S123.37,86.74,123.3,86.84c-7,8-8.55,20.55-.53,31.5a18.92,18.92,0,0,0,9.75,6.9,24.36,24.36,0,0,0,19.13-1.5c0.15-.08,50.78-26.93,50.93-27.08C212.48,91.49,217.06,78.28,209.7,66.81Z"/><path class="cls-8" d="M146.12,58.94l-16.5,20.25-6.4,7.64c-7,8-8.55,20.55-.53,31.5a18.92,18.92,0,0,0,9.75,6.9,24.55,24.55,0,0,0,19.2-1.5s1.28-.68,3.45-1.88C162,118.16,171.41,93.25,177.86,74Z"/><path class="cls-9" d="M172.06,78.43l13.12-27.7a0.08,0.08,0,0,1,.08-0.08c0.08-.23,1.13-2.93,1.2-3.08a12.75,12.75,0,0,0-1.35-11.93,10.72,10.72,0,0,0-6.68-4.73,12.3,12.3,0,0,0-12.83,4.28c-0.08.08-2.93,3.38-2.93,3.38l-21,25.88Z"/><rect class="cls-10" x="135.3" y="48.43" width="60.01" height="60.01"/><polygon class="cls-11" points="149.4 61.71 141.3 61.71 141.3 56.46 163.28 56.46 163.28 61.71 155.25 61.71 155.25 82.4 149.4 82.4 149.4 61.71"/><path class="cls-11" d="M163.28,69.49h0a13.25,13.25,0,0,1,13.58-13.58A13.43,13.43,0,0,1,187.13,60l-3.68,4.2a9.72,9.72,0,0,0-6.68-2.93c-4.35,0-7.58,3.68-7.58,8.1v0.08c0,4.5,3.08,8.18,7.58,8.18,3,0,4.8-1.2,6.83-3.08l3.68,3.68a13.33,13.33,0,0,1-10.65,4.65,13.06,13.06,0,0,1-13.35-12.76q0-.3,0-0.59"/><rect class="cls-11" x="141.3" y="96.44" width="21.98" height="3.98"/><polygon class="cls-12" points="101.63 65.63 68.44 65.63 67.36 64.54 67.36 51.66 102.17 51.66 102.17 65.13 101.63 65.63"/><polygon class="cls-11" points="92.78 17.88 68.44 17.88 67.36 18.97 67.36 51.95 102.17 51.95 102.17 27.51 92.78 17.88"/><path class="cls-12" d="M80.23,43.34l-8.85-3.89v-0.9l8.85-4.41v1.37L73,38.93l7.2,3v1.39Z"/><path class="cls-12" d="M87.94,32.1l-5,13.47H81.39l5-13.47h1.53Z"/><path class="cls-12" d="M89.09,41.95l7.21-3-7.21-3.44V34.14l8.85,4.41v0.9l-8.85,3.89V41.95Z"/><path class="cls-13" d="M102.47,63.24a2.32,2.32,0,0,1-2.31,2.31H69.67a2.32,2.32,0,0,1-2.31-2.31v-43a2.32,2.32,0,0,1,2.31-2.31H92.95l9.52,9.85V63.24Z"/><path class="cls-12" d="M102.48,27.72H94.17a1.25,1.25,0,0,1-1.25-1.25V17.89"/><path class="cls-11" d="M75.36,60.23l-3.85-1.7V58l3.85-1.92V57l-2.65,1.23,2.65,1.09v0.93Z"/><path class="cls-11" d="M78.08,61.1q-2,0-2-2.22a2.37,2.37,0,0,1,.55-1.69,2.06,2.06,0,0,1,1.58-.58,3,3,0,0,1,1.35.29l-0.35.91-0.52-.18a1.68,1.68,0,0,0-.48-0.07q-0.92,0-.92,1.31t0.92,1.27A2.1,2.1,0,0,0,78.81,60a2.27,2.27,0,0,0,.58-0.28v1a1.9,1.9,0,0,1-.58.25A3.25,3.25,0,0,1,78.08,61.1Z"/><path class="cls-11" d="M84.33,58.85a2.33,2.33,0,0,1-.56,1.65,2,2,0,0,1-1.55.6,2.17,2.17,0,0,1-1.1-.27A1.82,1.82,0,0,1,80.39,60a2.63,2.63,0,0,1-.26-1.19,2.32,2.32,0,0,1,.55-1.65,2,2,0,0,1,1.56-.59,2.19,2.19,0,0,1,1.1.27,1.81,1.81,0,0,1,.73.78A2.61,2.61,0,0,1,84.33,58.85Zm-3,0a1.82,1.82,0,0,0,.21,1,0.76,0.76,0,0,0,.69.33,0.74,0.74,0,0,0,.68-0.33,1.84,1.84,0,0,0,.21-1,1.79,1.79,0,0,0-.21-1,0.89,0.89,0,0,0-1.37,0A1.79,1.79,0,0,0,81.34,58.85Z"/><path class="cls-11" d="M86.68,61.1a1.41,1.41,0,0,1-1.2-.59,3.32,3.32,0,0,1,0-3.3,1.44,1.44,0,0,1,1.22-.59,1.41,1.41,0,0,1,1.25.64h0a4.85,4.85,0,0,1-.09-0.86V55H89.1v6H88.19L88,60.46H87.91A1.35,1.35,0,0,1,86.68,61.1Zm0.41-.94a0.8,0.8,0,0,0,.66-0.26A1.53,1.53,0,0,0,88,59V58.87a1.77,1.77,0,0,0-.21-1,0.8,0.8,0,0,0-.7-0.3,0.69,0.69,0,0,0-.61.34,1.79,1.79,0,0,0-.22,1,1.7,1.7,0,0,0,.22,1A0.72,0.72,0,0,0,87.1,60.15Z"/><path class="cls-11" d="M92.29,61.1a2.24,2.24,0,0,1-1.64-.58,2.19,2.19,0,0,1-.59-1.64,2.4,2.4,0,0,1,.54-1.68,1.94,1.94,0,0,1,1.51-.59,1.91,1.91,0,0,1,1.43.52,2,2,0,0,1,.51,1.45v0.57H91.27a1.14,1.14,0,0,0,.3.79,1.05,1.05,0,0,0,.78.28,3.25,3.25,0,0,0,.74-0.08,3.7,3.7,0,0,0,.73-0.26v0.91a2.78,2.78,0,0,1-.66.23A4.19,4.19,0,0,1,92.29,61.1Zm-0.17-3.65a0.75,0.75,0,0,0-.59.24,1.1,1.1,0,0,0-.24.68H93a1,1,0,0,0-.23-0.68A0.78,0.78,0,0,0,92.13,57.45Z"/><path class="cls-11" d="M94.74,59.31l2.65-1.09L94.74,57V56.06L98.59,58v0.55l-3.85,1.7V59.31Z"/><path class="cls-14" d="M28.26,55.93a22,22,0,0,0-6.95,42.84,1.1,1.1,0,0,0,1.5-1.06c0-.52,0-1.9,0-3.74C16.66,95.31,15.37,91,15.37,91a5.82,5.82,0,0,0-2.44-3.22c-2-1.36.15-1.34,0.15-1.34a4.62,4.62,0,0,1,3.37,2.27c2,3.36,5.15,2.39,6.4,1.83a4.7,4.7,0,0,1,1.4-2.94c-4.88-.55-10-2.44-10-10.87a8.5,8.5,0,0,1,2.26-5.9A7.91,7.91,0,0,1,16.71,65s1.85-.59,6,2.25a20.84,20.84,0,0,1,11,0c4.2-2.84,6-2.25,6-2.25A7.9,7.9,0,0,1,40,70.87a8.48,8.48,0,0,1,2.26,5.9c0,8.45-5.14,10.3-10,10.85a5.25,5.25,0,0,1,1.49,4.07c0,2.94,0,5.31,0,6a1.1,1.1,0,0,0,1.51,1.06A22,22,0,0,0,28.26,55.93Z"/><circle class="cls-15" cx="201.08" cy="43.1" r="15.36"/><text class="cls-16" transform="translate(191.03 49.24)"></text></svg>