<svg id="Option_3" data-name="Option 3" xmlns="http://www.w3.org/2000/svg" xmlns:xlink="http://www.w3.org/1999/xlink" viewBox="0 0 382 130"><defs><style>.cls-1,.cls-17,.cls-2,.cls-5,.cls-8{fill:none;}.cls-1{clip-rule:evenodd;}.cls-3{clip-path:url(#clip-path);}.cls-4{opacity:0.5;}.cls-17,.cls-5,.cls-8{stroke:#009ada;}.cls-19,.cls-20,.cls-5{stroke-linecap:round;stroke-linejoin:round;}.cls-5{stroke-width:2.2px;stroke-dasharray:3.52 6.17;}.cls-6{fill:#0b9ad6;}.cls-7{fill:#009ada;}.cls-17,.cls-8{stroke-miterlimit:10;}.cls-8{stroke-width:1.3px;}.cls-20,.cls-21,.cls-22,.cls-9{fill:#fff;}.cls-10{fill:url(#linear-gradient);}.cls-11{fill:#35ade3;}.cls-12{fill:url(#linear-gradient-2);}.cls-13{fill:url(#linear-gradient-3);}.cls-14{fill:url(#linear-gradient-4);}.cls-15{clip-path:url(#clip-path-2);}.cls-16,.cls-19{fill:#1a2e3e;}.cls-17{stroke-width:0.53px;}.cls-18{fill:#5ab1e3;}.cls-19{stroke:#1a2e3e;stroke-width:0.53px;}.cls-20{stroke:#fff;stroke-width:0.51px;}.cls-21{font-size:4.43px;font-family:Arial;font-weight:700;}.cls-22{fill-rule:evenodd;}</style><clipPath id="clip-path"><polygon class="cls-1" points="158.68 109.55 -0.43 109.55 -0.43 59.49 146.93 59.49 176 89.26 158.68 109.55"/></clipPath><linearGradient id="linear-gradient" x1="30.29" y1="1508.37" x2="16.93" y2="1491.87" gradientTransform="translate(0 -1426.9)" gradientUnits="userSpaceOnUse"><stop offset="0.06" stop-color="#35ade3"/><stop offset="0.21" stop-color="#37aae1"/><stop offset="0.37" stop-color="#43a0d9"/><stop offset="0.54" stop-color="#5290cd"/><stop offset="0.71" stop-color="#5e7cbe"/><stop offset="0.88" stop-color="#6c69b0"/><stop offset="0.97" stop-color="#7863ab"/></linearGradient><linearGradient id="linear-gradient-2" x1="15.11" y1="1522.78" x2="21.8" y2="1507.3" gradientTransform="translate(0 -1426.9)" gradientUnits="userSpaceOnUse"><stop offset="0.06" stop-color="#35ade3"/><stop offset="0.2" stop-color="#2ab0e5"/><stop offset="0.35" stop-color="#0fb7e0"/><stop offset="0.51" stop-color="#26bec9"/><stop offset="0.68" stop-color="#47bea6"/><stop offset="0.85" stop-color="#5dbe7e"/><stop offset="0.97" stop-color="#6bbe59"/></linearGradient><linearGradient id="linear-gradient-3" x1="24.29" y1="1502.44" x2="37.37" y2="1485.65" xlink:href="#linear-gradient-2"/><linearGradient id="linear-gradient-4" x1="29.38" y1="1490.85" x2="29.38" y2="1517.34" gradientTransform="translate(0 -1426.9)" gradientUnits="userSpaceOnUse"><stop offset="0" stop-color="#010101"/><stop offset="1" stop-color="#010101"/></linearGradient><clipPath id="clip-path-2"><polygon class="cls-2" points="114.78 102.24 123.9 111.37 128.81 108.91 126.36 122.6 167.76 138.04 195.31 126.98 202.33 119.97 203.21 115.58 196.54 105.58 194.78 104.35 201.63 97.51 190.7 75.58 172.81 79.52 165.7 82.29 147.06 82.07 143.9 79.08 124.64 75.44 114.78 102.24"/></clipPath></defs><title>pipeline</title><g class="cls-3"><g class="cls-4"><path class="cls-5" d="M193.25,79.73c0,4.95-4.32,9-9.6,9H31.25c-5.28,0-9.6-4.05-9.6-9s4.32-9,9.6-9h152.4C188.93,70.73,193.25,74.78,193.25,79.73Z"/></g><g class="cls-4"><path class="cls-6" d="M36.5,79.62a1.78,1.78,0,1,0-1.78,1.78A1.78,1.78,0,0,0,36.5,79.62Zm1.85,0A3.62,3.62,0,1,1,34.73,76,3.62,3.62,0,0,1,38.35,79.62Z"/><path class="cls-6" d="M74.21,79.62a1.78,1.78,0,1,0-1.78,1.78A1.78,1.78,0,0,0,74.21,79.62Zm1.85,0A3.62,3.62,0,1,1,72.43,76,3.62,3.62,0,0,1,76.05,79.62Z"/><path class="cls-6" d="M111.91,79.62a1.78,1.78,0,1,0-1.78,1.78A1.78,1.78,0,0,0,111.91,79.62Zm1.85,0A3.62,3.62,0,1,1,110.13,76,3.62,3.62,0,0,1,113.75,79.62Z"/><path class="cls-6" d="M149.61,79.62a1.78,1.78,0,1,0-1.78,1.78A1.78,1.78,0,0,0,149.61,79.62Zm1.85,0A3.62,3.62,0,1,1,147.83,76,3.62,3.62,0,0,1,151.45,79.62Z"/></g></g><polygon class="cls-7" points="104.47 62.87 64.41 62.87 63.11 61.94 63.11 47.06 105.11 47.06 105.11 62.45 104.47 62.87"/><rect class="cls-7" x="80.27" y="21.87" width="8.11" height="13.29"/><rect class="cls-8" x="63.17" y="21.66" width="42.3" height="41.53" rx="1.84" ry="1.84"/><path class="cls-9" d="M74.44,59.84H72.26L68.72,53.7H68.67q0.11,1.63.11,2.32v3.82H67.24V51.72h2.17l3.53,6.08h0q-0.08-1.58-.08-2.24V51.72h1.55v8.12Z"/><path class="cls-9" d="M80.75,59.84L80.52,59H80.44a1.79,1.79,0,0,1-.77.67,2.63,2.63,0,0,1-1.14.24,2.17,2.17,0,0,1-1.65-.59,2.36,2.36,0,0,1-.56-1.69v-4H78v3.63a1.74,1.74,0,0,0,.24,1,0.87,0.87,0,0,0,.76.34,1.14,1.14,0,0,0,1-.47,3,3,0,0,0,.32-1.57V53.63h1.69v6.21h-1.3Z"/><path class="cls-9" d="M87,55.28h3.22v4.21a9.05,9.05,0,0,1-1.47.36,9.6,9.6,0,0,1-1.41.1,3.58,3.58,0,0,1-2.81-1.08,4.49,4.49,0,0,1-1-3.1,4.09,4.09,0,0,1,1.12-3.07,4.27,4.27,0,0,1,3.12-1.1,6,6,0,0,1,2.41.5l-0.57,1.38A4.09,4.09,0,0,0,87.83,53a2.28,2.28,0,0,0-1.79.75,2.91,2.91,0,0,0-.67,2,3.24,3.24,0,0,0,.54,2,1.87,1.87,0,0,0,1.57.7,5.58,5.58,0,0,0,1.09-.11V56.72H87V55.28Z"/><path class="cls-9" d="M94.88,60a3.2,3.2,0,0,1-2.34-.83,3.13,3.13,0,0,1-.84-2.34,3.45,3.45,0,0,1,.78-2.41,2.78,2.78,0,0,1,2.16-.85,2.74,2.74,0,0,1,2,.75,2.84,2.84,0,0,1,.73,2.07v0.82h-4a1.63,1.63,0,0,0,.43,1.13,1.5,1.5,0,0,0,1.12.41A4.65,4.65,0,0,0,96,58.58a5.3,5.3,0,0,0,1-.37v1.31a4,4,0,0,1-.95.33A6,6,0,0,1,94.88,60Zm-0.24-5.23a1.07,1.07,0,0,0-.84.34,1.58,1.58,0,0,0-.35,1h2.38a1.41,1.41,0,0,0-.33-1A1.11,1.11,0,0,0,94.64,54.72Z"/><path class="cls-9" d="M101.4,58.6a3.67,3.67,0,0,0,1.07-.19v1.26a3.8,3.8,0,0,1-1.56.28,1.9,1.9,0,0,1-1.48-.51A2.24,2.24,0,0,1,99,57.9v-3H98.16V54.19l0.93-.57,0.49-1.31h1.08v1.32h1.74v1.27h-1.74v3a0.66,0.66,0,0,0,.2.53A0.8,0.8,0,0,0,101.4,58.6Z"/><path class="cls-10" d="M23.39,56.66A8.28,8.28,0,0,0,21.56,56,9.88,9.88,0,0,0,10.2,69.91s6.19,13.55,7.19,15.7c0,0,11.33-5.2,13.65-10.53,2.15-5-1.47-14-2.14-15.4Z"/><path class="cls-11" d="M49,71.74a8.07,8.07,0,0,0-2.85-2.65s-8-4.37-8-4.37S10.86,80.54,10.83,80.58c-3.08,3.51-3.78,9.08-.23,13.91a8.35,8.35,0,0,0,4.31,3,10.76,10.76,0,0,0,8.45-.66c0.07,0,22.42-11.89,22.49-12A9.1,9.1,0,0,0,49,71.74Z"/><path class="cls-12" d="M20.91,68.26l-7.29,8.94L10.8,80.58C7.72,84.09,7,89.66,10.57,94.49a8.35,8.35,0,0,0,4.31,3,10.84,10.84,0,0,0,8.48-.66L24.87,96c3-1.64,7.2-12.64,10.05-21.14Z"/><path class="cls-13" d="M32.36,76.87l5.79-12.23a0,0,0,0,1,0,0c0-.1.5-1.29,0.53-1.36a5.63,5.63,0,0,0-.6-5.27,4.73,4.73,0,0,0-2.95-2.09,5.43,5.43,0,0,0-5.66,1.89l-1.29,1.49L18.95,70.7Z"/><rect class="cls-14" x="16.13" y="63.62" width="26.5" height="26.5"/><polygon class="cls-9" points="22.36 69.48 18.78 69.48 18.78 67.17 28.48 67.17 28.48 69.48 24.94 69.48 24.94 78.62 22.36 78.62 22.36 69.48"/><path class="cls-9" d="M28.48,72.92h0a5.85,5.85,0,0,1,6-6A5.93,5.93,0,0,1,39,68.71l-1.62,1.85a4.29,4.29,0,0,0-2.95-1.29,3.43,3.43,0,0,0-3.35,3.58v0a3.4,3.4,0,0,0,3.35,3.61,4.08,4.08,0,0,0,3-1.36l1.62,1.62a5.89,5.89,0,0,1-4.7,2.05,5.77,5.77,0,0,1-5.9-5.63q0-.13,0-0.26"/><rect class="cls-9" x="18.78" y="84.82" width="9.7" height="1.76"/><path class="cls-7" d="M116.83,102.65C124.09,98,132.62,90,129.38,80.5c-1.77-5.15-4.21-9.56-4.54-15.12a34.07,34.07,0,0,1,2.07-13.85C133.43,34,152.79,25.77,170.28,31c16.21,4.87,27.35,23.68,20.64,40.08-3.88,9.46-5.61,16.77,3,24.13,2.34,2,8,5,8,8.53,0,4.63-9.12-1-10.14-1.79,1.16,2,12.62,14,5.32,14.82-6.72.78-12.65-8.6-16.68-12.62-6.78-6.76-5.6,8.2-5.63,11.29,0,4.88-3.5,14.77-9.68,8.33-5.11-5.32-3.18-13.8-6.73-19.71-3.89-6.47-10.37,6.47-12,8.84-1.81,2.64-10.85,15.45-14.45,8.63-2.92-5.54,1.75-14.22,4-19.23-0.84,1.82-6.77,4.51-8.5,5.38a23.06,23.06,0,0,1-12.29,2.83c-9.11-.65-2.12-5.49,1.59-7.88h0Z"/><path class="cls-9" d="M159.65,29.46A37,37,0,0,1,170.28,31c16.21,4.87,27.35,23.68,20.64,40.08-3.88,9.46-5.61,16.77,3,24.13,2.34,2,8,5,8,8.53a1.63,1.63,0,0,1-1.85,1.81c-2.72,0-7.56-3-8.29-3.61,1.16,2,12.62,14,5.32,14.82a6.88,6.88,0,0,1-.8,0c-6.39,0-12-8.8-15.89-12.67-1.23-1.22-2.19-1.74-3-1.74-3.44,0-2.65,10.5-2.68,13,0,3.75-2.08,10.44-5.82,10.44-1.13,0-2.42-.61-3.86-2.11-5.11-5.32-3.18-13.8-6.73-19.71a3,3,0,0,0-2.54-1.79c-3.71,0-8.15,8.73-9.45,10.63C145,115,139,123.53,134.8,123.53a3.13,3.13,0,0,1-2.81-2c-2.92-5.54,1.75-14.22,4-19.23-0.84,1.82-6.77,4.51-8.5,5.38a23.83,23.83,0,0,1-10.87,2.88q-0.71,0-1.42-.05c-9-.64-2.36-5.32,1.39-7.76l0.56-.36-0.37.24C124.09,98,132.62,90,129.38,80.5c-1.77-5.15-4.21-9.56-4.54-15.12a34.07,34.07,0,0,1,2.07-13.85c5.21-14,18.62-22.06,32.73-22.06m-42.82,73.19h0m0,0-0.19.12-0.13.08,0.32-.21m42.83-76c-16.08,0-30,9.38-35.38,23.9a37.08,37.08,0,0,0-2.24,15c0.26,4.49,1.75,8.25,3.18,11.89,0.51,1.29,1,2.63,1.5,4,2.81,8.2-5.94,15.33-11.41,18.85h0l0,0-0.14.09c-3.89,2.53-8,5.52-7,9.1,0.88,3.41,5.31,3.73,7,3.85,0.54,0,1.09.06,1.63,0.06a26.32,26.32,0,0,0,12.14-3.19l0.8-.4,0.13-.06c-1.52,4.39-2.32,9.17-.24,13.1a5.87,5.87,0,0,0,5.3,3.48c3.9,0,8.6-4,14-11.84,0.27-.4.61-1,1-1.67,3.38-5.66,5.09-7.34,5.94-7.68a2.76,2.76,0,0,1,.26.37c1.28,2.13,1.73,4.87,2.2,7.77,0.67,4.13,1.44,8.81,4.92,12.43,1.9,2,3.88,3,5.9,3,1.63,0,4.69-.71,6.87-5.46a20.42,20.42,0,0,0,1.78-7.77c0-.37,0-0.89,0-1.52-0.11-4.66.11-7,.41-8.2l0.43,0.4c0.81,0.81,1.77,1.93,2.78,3.12,4,4.62,8.87,10.38,15.09,10.38a9.73,9.73,0,0,0,1.12-.07c3-.35,4.13-1.94,4.54-2.94,1-2.34,0-5-1.91-8h0a4.51,4.51,0,0,0,4.67-4.74c0-4.18-4.12-7.2-7.14-9.36-0.73-.52-1.41-1-1.86-1.42-6.86-5.84-6.24-11.19-2.25-20.93A30.83,30.83,0,0,0,192.48,47,35.59,35.59,0,0,0,171.1,28.33a39.77,39.77,0,0,0-11.45-1.69h0Z"/><g class="cls-15"><path class="cls-16" d="M116.83,102.65C124.09,98,132.62,90,129.38,80.5c-1.77-5.15-4.21-9.56-4.54-15.12a34.07,34.07,0,0,1,2.07-13.85C133.43,34,152.79,25.77,170.28,31c16.21,4.87,27.35,23.68,20.64,40.08-3.88,9.46-5.61,16.77,3,24.13,2.34,2,8,5,8,8.53,0,4.63-9.12-1-10.14-1.79,1.16,2,12.62,14,5.32,14.82-6.72.78-12.65-8.6-16.68-12.62-6.78-6.76-5.6,8.2-5.63,11.29,0,4.88-3.5,14.77-9.68,8.33-5.11-5.32-3.18-13.8-6.73-19.71-3.89-6.47-10.37,6.47-12,8.84-1.81,2.64-10.85,15.45-14.45,8.63-2.92-5.54,1.75-14.22,4-19.23-0.84,1.82-6.77,4.51-8.5,5.38a23.06,23.06,0,0,1-12.29,2.83c-9.11-.65-2.12-5.49,1.59-7.88h0Z"/></g><polygon class="cls-9" points="174.77 81.19 142.17 81.19 158.73 100.05 158.99 100.05 174.77 81.19"/><path class="cls-16" d="M151.22,81.57a1.08,1.08,0,0,1,.81-0.44h12.42a0.94,0.94,0,0,1,.76.47L165.39,82a0.63,0.63,0,0,1-.2.77l-5.11,3.59a1.86,1.86,0,0,1-1,.29l-1.67,0a2.13,2.13,0,0,1-1-.31l-5.35-3.61a0.54,0.54,0,0,1-.15-0.74Z"/><path class="cls-16" d="M159.8,86.3a0.69,0.69,0,0,0-.64-0.51h-1.84a0.69,0.69,0,0,0-.64.51l-2.6,11.85a1,1,0,0,0,.29.86l3.48,3a0.64,0.64,0,0,0,.8,0l3.48-3a1,1,0,0,0,.29-0.86Z"/><path class="cls-9" d="M137.37,80.9c0.12-.18,5.74-2.06,5.74-2.06a2.34,2.34,0,0,1,1-.06L154.95,81a0.35,0.35,0,0,1,.25.56l-3,5a0.71,0.71,0,0,1-.77.3S136.44,82.32,137.37,80.9Z"/><path class="cls-17" d="M137.37,80.9c0.12-.18,5.74-2.06,5.74-2.06a2.34,2.34,0,0,1,1-.06L154.95,81a0.35,0.35,0,0,1,.25.56l-3,5a0.71,0.71,0,0,1-.77.3S136.44,82.32,137.37,80.9Z"/><path class="cls-16" d="M177.44,80.12c2.12,0,11.29-3.22,11.29-3.22l-2.19,13.25-28.16,13.6-1.89-1.93s16-19.37,17.57-22C175.27,79.8,175.91,80.12,177.44,80.12Z"/><path class="cls-9" d="M177.63,81.1c-0.12-.18-3.67-2-3.67-2a1.83,1.83,0,0,0-1-.15l-11.18,2a0.34,0.34,0,0,0-.25.55l3,5a0.69,0.69,0,0,0,.77.29S178.56,82.52,177.63,81.1Z"/><path class="cls-17" d="M177.63,81.1c-0.12-.18-3.67-2-3.67-2a1.83,1.83,0,0,0-1-.15l-11.18,2a0.34,0.34,0,0,0-.25.55l3,5a0.69,0.69,0,0,0,.77.29S178.56,82.52,177.63,81.1Z"/><path class="cls-16" d="M140.7,79.8a85.44,85.44,0,0,0-9.08,1.39l12.46,16.23,16.41,5.88-0.44-1s-14.18-19.9-15.7-22.53H140.7Z"/><path class="cls-7" d="M143,78.58a1.44,1.44,0,0,1,.82.52l14.25,20.39c0.17,0.24.1,0.31-.15,0.17L139.56,89a0.29,0.29,0,0,1,0-.54l4.12-2.49c0.25-.15.22-0.3-0.07-0.34l-5.35-.72a0.73,0.73,0,0,1-.59-0.59l-0.84-6.21a0.37,0.37,0,0,1,.45-0.44Z"/><path class="cls-7" d="M173.94,78.76a1.51,1.51,0,0,0-.83.52L158.25,99.54c-0.17.23-.11,0.31,0.15,0.16L177.17,89a0.28,0.28,0,0,0,0-.53l-4.12-2.49c-0.25-.15-0.22-0.3.07-0.34l5.35-.72a0.84,0.84,0,0,0,.65-0.58l1.58-6.23a0.32,0.32,0,0,0-.39-0.42Z"/><circle class="cls-9" cx="119.48" cy="103.3" r="0.88"/><circle class="cls-9" cx="196.17" cy="99.06" r="0.88"/><circle class="cls-18" cx="145.15" cy="58.01" r="10.46"/><circle class="cls-18" cx="172.52" cy="58.01" r="10.46"/><path class="cls-16" d="M172,45.75a12.29,12.29,0,0,0-12,9.65h-3a12.32,12.32,0,1,0,.27,3h2.5A12.29,12.29,0,1,0,172,45.75ZM145,67.69A9.65,9.65,0,1,1,154.64,58,9.65,9.65,0,0,1,145,67.69Zm27,0A9.65,9.65,0,1,1,181.69,58,9.65,9.65,0,0,1,172,67.69Z"/><path class="cls-19" d="M140.4,55l-1.55-1-0.18.29,1.55,1Z"/><path class="cls-19" d="M142.46,53.17l-0.88-1.57-0.3.16,0.87,1.57Z"/><path class="cls-19" d="M149.78,55.65l1.76-1-0.16-.3-1.75,1Z"/><path class="cls-19" d="M139.55,57.94h-1.89v0.34h1.9C139.55,58.17,139.55,58.06,139.55,57.94Z"/><path class="cls-19" d="M144.92,52.57h0.27V50.75h-0.34v1.83h0.07Z"/><path class="cls-19" d="M148,53.57l1-1.63-0.29-.18-1,1.62Z"/><path class="cls-19" d="M140.24,60.58l-1.74,1,0.16,0.3,1.75-1Z"/><path class="cls-19" d="M149.34,61l1.85,1.15,0.18-.29-1.84-1.14Z"/><path class="cls-19" d="M150.29,57.94c0,0.11,0,.23,0,0.34h2.11V57.94h-2.09Z"/><path class="cls-19" d="M147.39,62.71l1.07,1.92,0.3-.16-1.07-1.92Z"/><path class="cls-19" d="M142.09,62.51L141,64.28l0.29,0.18,1.1-1.78Z"/><path class="cls-19" d="M144.92,63.31h-0.07v2.16h0.34V63.31h-0.27Z"/><polygon class="cls-20" points="146.52 60.14 146.23 60.29 144.17 56.92 144.47 56.77 146.52 60.14"/><rect class="cls-20" x="144.84" y="56.61" width="0.34" height="5.2"/><text class="cls-21" transform="translate(167.16 55.84)">€</text><path class="cls-16" d="M178.73,58.41a0.38,0.38,0,0,1-.38-0.38,6.16,6.16,0,0,0-6.16-6.16,0.38,0.38,0,0,1,0-.75A6.92,6.92,0,0,1,179.1,58,0.38,0.38,0,0,1,178.73,58.41Z"/><path class="cls-16" d="M172.19,64.95A6.92,6.92,0,0,1,165.28,58a0.38,0.38,0,0,1,.75,0,6.16,6.16,0,0,0,6.16,6.16A0.38,0.38,0,1,1,172.19,64.95Z"/><path class="cls-22" d="M175.7,61c-0.44-.13-0.54-0.2-0.54-0.39s0.3-.24.48-0.24a1,1,0,0,1,.49.13,0.1,0.1,0,0,0,.14,0l0.22-.35a0.1,0.1,0,0,0,0-.14,1.53,1.53,0,0,0-.61-0.21V59.56a0.1,0.1,0,0,0-.1-0.1h-0.41a0.1,0.1,0,0,0-.1.1v0.25a0.84,0.84,0,0,0-.7.81,1.07,1.07,0,0,0,1,1c0.42,0.13.5,0.18,0.5,0.34s-0.29.22-.46,0.22a0.84,0.84,0,0,1-.57-0.23,0.1,0.1,0,0,0-.07,0,0.1,0.1,0,0,0-.07,0l-0.3.28a0.1,0.1,0,0,0,0,.15,1.4,1.4,0,0,0,.7.39V63a0.1,0.1,0,0,0,.1.1h0.41a0.1,0.1,0,0,0,.1-0.1V62.76a0.85,0.85,0,0,0,.78-0.81A1,1,0,0,0,175.7,61Z"/><path class="cls-22" d="M175.6,57.71a3.57,3.57,0,1,0,3.57,3.57A3.57,3.57,0,0,0,175.6,57.71Zm0,6.42a2.85,2.85,0,1,1,2.85-2.85A2.85,2.85,0,0,1,175.6,64.14Z"/><path class="cls-22" d="M168.57,50.76a3.57,3.57,0,1,0,3.57,3.57A3.57,3.57,0,0,0,168.57,50.76Zm0,6.42a2.85,2.85,0,1,1,2.85-2.85A2.85,2.85,0,0,1,168.57,57.19Z"/><path class="cls-16" d="M173.59,53.28a0.38,0.38,0,0,1-.27-0.11l-1.4-1.4a0.38,0.38,0,0,1,0-.53l1.37-1.37a0.38,0.38,0,1,1,.53.53l-1.1,1.1,1.13,1.13A0.38,0.38,0,0,1,173.59,53.28Z"/><path class="cls-16" d="M170.82,66.33a0.38,0.38,0,0,1-.27-0.64l1.1-1.1-1.13-1.13a0.38,0.38,0,0,1,.53-0.53l1.4,1.4a0.38,0.38,0,0,1,0,.53l-1.37,1.37A0.38,0.38,0,0,1,170.82,66.33Z"/></svg>